<svg width="421" height="339" viewBox="0 0 421 339" fill="none" xmlns="http://www.w3.org/2000/svg">
<g filter="url(#filter0_d_74_104)">
<rect width="226" height="64" rx="10" transform="matrix(0.999393 -0.0348432 0.0349558 0.999389 98.5576 17.8746)" fill="white" shape-rendering="crispEdges"/>
<path d="M130.267 45.3064C129.948 44.9439 129.558 44.6707 129.098 44.4866C128.651 44.3021 128.134 44.22 127.548 44.2404C126.962 44.2609 126.419 44.3932 125.921 44.6374C125.436 44.8811 125.014 45.216 124.655 45.6421C124.31 46.0544 124.04 46.5441 123.846 47.1112C123.666 47.6778 123.587 48.2876 123.61 48.9405C123.633 49.6068 123.755 50.2162 123.974 50.7689C124.207 51.3078 124.51 51.7776 124.884 52.1781C125.258 52.5653 125.688 52.8638 126.176 53.0736C126.677 53.283 127.207 53.3779 127.767 53.3584C128.407 53.3361 128.968 53.1831 129.452 52.8994C129.936 52.6157 130.329 52.2284 130.632 51.7375L133.298 53.5858C132.728 54.4462 131.99 55.0923 131.085 55.5241C130.179 55.9559 129.24 56.1887 128.267 56.2227C127.161 56.2612 126.136 56.1235 125.191 55.8096C124.246 55.4957 123.423 55.0307 122.721 54.4148C122.018 53.7856 121.458 53.018 121.039 52.112C120.634 51.2056 120.412 50.186 120.372 49.0534C120.332 47.9208 120.483 46.8882 120.824 45.9558C121.178 45.0229 121.684 44.2248 122.341 43.5615C122.998 42.8848 123.787 42.357 124.707 41.978C125.628 41.5991 126.641 41.3903 127.747 41.3517C128.147 41.3378 128.562 41.3634 128.991 41.4285C129.433 41.4798 129.863 41.5782 130.282 41.7237C130.714 41.8687 131.128 42.0677 131.523 42.3208C131.919 42.5738 132.277 42.8882 132.597 43.2639L130.267 45.3064ZM134.055 48.5764C134.016 47.4437 134.166 46.4112 134.507 45.4787C134.861 44.5458 135.367 43.7477 136.024 43.0844C136.681 42.4078 137.47 41.88 138.39 41.501C139.311 41.122 140.324 40.9133 141.43 40.8747C142.536 40.8361 143.562 40.9738 144.507 41.2878C145.452 41.6017 146.275 42.0733 146.978 42.7025C147.68 43.3184 148.233 44.0796 148.639 44.986C149.057 45.892 149.286 46.9113 149.326 48.0439C149.365 49.1766 149.208 50.2094 148.854 51.1423C148.513 52.0747 148.014 52.8793 147.357 53.5559C146.7 54.2192 145.911 54.7403 144.991 55.1193C144.07 55.4983 143.057 55.707 141.951 55.7456C140.845 55.7842 139.819 55.6465 138.874 55.3325C137.929 55.0186 137.106 54.5537 136.404 53.9378C135.702 53.3085 135.141 52.5409 134.722 51.635C134.317 50.7285 134.095 49.709 134.055 48.5764ZM137.293 48.4635C137.316 49.1297 137.438 49.7392 137.657 50.2919C137.89 50.8308 138.206 51.3 138.607 51.6996C139.007 52.0859 139.478 52.383 140.019 52.591C140.573 52.7985 141.184 52.8906 141.85 52.8674C142.516 52.8441 143.112 52.71 143.637 52.4649C144.175 52.2193 144.631 51.8899 145.003 51.4766C145.375 51.0501 145.652 50.5602 145.832 50.0069C146.026 49.4398 146.111 48.8231 146.088 48.1568C146.065 47.5039 145.937 46.9013 145.704 46.3491C145.485 45.7964 145.175 45.3269 144.775 44.9406C144.374 44.541 143.896 44.2375 143.342 44.03C142.801 43.8221 142.197 43.7297 141.531 43.7529C140.865 43.7762 140.262 43.9106 139.724 44.1561C139.199 44.4013 138.75 44.7371 138.378 45.1636C138.006 45.5769 137.723 46.067 137.529 46.6341C137.349 47.2007 137.27 47.8105 137.293 48.4635ZM151.198 40.8944L156.674 40.7034C157.394 40.6784 158.076 40.7279 158.721 40.8522C159.378 40.9627 159.953 41.1762 160.444 41.4926C160.948 41.7952 161.35 42.2214 161.65 42.7713C161.962 43.3075 162.133 43.9886 162.161 44.8148C162.196 45.8141 161.966 46.676 161.471 47.4004C160.976 48.1114 160.232 48.5776 159.239 48.799L163.046 54.6499L159.308 54.7802L156.152 49.2268L154.613 49.2805L154.811 54.937L151.693 55.0457L151.198 40.8944ZM154.521 46.6421L156.36 46.578C156.639 46.5682 156.932 46.5513 157.238 46.5273C157.557 46.4895 157.842 46.4196 158.091 46.3175C158.341 46.202 158.542 46.0349 158.694 45.8162C158.86 45.5969 158.936 45.2941 158.923 44.9077C158.91 44.5479 158.827 44.2639 158.673 44.0558C158.519 43.8478 158.327 43.6944 158.096 43.5957C157.866 43.4836 157.603 43.4127 157.308 43.383C157.014 43.3532 156.727 43.3432 156.447 43.353L154.408 43.4241L154.521 46.6421ZM164.278 40.4383L173.893 40.1031L173.993 42.9814L167.497 43.2079L167.59 45.8462L173.726 45.6323L173.826 48.5105L167.69 48.7245L167.791 51.6027L174.647 51.3637L174.747 54.2419L164.773 54.5897L164.278 40.4383ZM183.865 43.2175C183.601 42.9066 183.246 42.6855 182.801 42.5542C182.369 42.4092 181.96 42.3434 181.574 42.3569C181.347 42.3648 181.115 42.3995 180.877 42.4612C180.639 42.5229 180.416 42.6174 180.207 42.7447C179.997 42.8588 179.829 43.0114 179.702 43.2026C179.575 43.3938 179.517 43.6226 179.526 43.8891C179.541 44.3156 179.712 44.6364 180.04 44.8518C180.368 45.0672 180.774 45.2465 181.26 45.3897C181.758 45.5324 182.29 45.6739 182.855 45.8143C183.421 45.9547 183.948 46.1631 184.438 46.4395C184.942 46.7155 185.362 47.0944 185.699 47.5763C186.036 48.0582 186.219 48.7122 186.248 49.5384C186.275 50.3246 186.153 51.0159 185.88 51.6124C185.607 52.209 185.225 52.7093 184.732 53.1134C184.252 53.517 183.683 53.8237 183.023 54.0335C182.376 54.2428 181.687 54.3602 180.954 54.3858C180.034 54.4178 179.177 54.3076 178.381 54.0552C177.585 53.8028 176.836 53.3753 176.135 52.7727L178.268 50.2569C178.603 50.6721 179.014 50.9913 179.502 51.2144C180.003 51.4238 180.513 51.5194 181.033 51.5013C181.286 51.4924 181.539 51.457 181.79 51.3948C182.054 51.3189 182.284 51.2175 182.48 51.0906C182.689 50.9633 182.85 50.8042 182.963 50.6135C183.09 50.4223 183.149 50.2001 183.14 49.9469C183.125 49.5205 182.947 49.1932 182.605 48.9649C182.277 48.7229 181.863 48.5239 181.364 48.3678C180.865 48.2118 180.326 48.0572 179.747 47.9039C179.168 47.7507 178.626 47.536 178.123 47.2601C177.62 46.9841 177.193 46.6121 176.843 46.144C176.507 45.6754 176.325 45.0481 176.297 44.2619C176.271 43.5023 176.394 42.831 176.667 42.2478C176.953 41.6641 177.336 41.1705 177.816 40.7668C178.309 40.3628 178.878 40.0561 179.525 39.8467C180.171 39.6241 180.84 39.5007 181.533 39.4765C182.333 39.4487 183.109 39.535 183.864 39.7355C184.618 39.936 185.304 40.2923 185.922 40.8044L183.865 43.2175ZM192.741 39.446L196.299 39.322L200.121 48.4743L200.161 48.4729L203.395 39.0746L206.733 38.9582L201.391 53.313L198.893 53.4001L192.741 39.446ZM208.174 38.9079L211.292 38.7992L211.787 52.9506L208.669 53.0593L208.174 38.9079ZM214.128 38.7003L219.405 38.5164C220.018 38.495 220.633 38.5203 221.249 38.5922C221.878 38.6503 222.444 38.804 222.946 39.0533C223.448 39.2893 223.86 39.6352 224.183 40.0909C224.506 40.5465 224.681 41.1608 224.708 41.9337C224.736 42.7332 224.532 43.4074 224.098 43.9562C223.676 44.4912 223.103 44.8847 222.378 45.1368L222.38 45.1768C222.848 45.2271 223.273 45.3458 223.653 45.5326C224.046 45.7057 224.381 45.9408 224.658 46.238C224.948 46.5214 225.174 46.8604 225.334 47.2551C225.495 47.6497 225.583 48.0736 225.599 48.5266C225.625 49.2729 225.487 49.9047 225.185 50.4222C224.882 50.9264 224.483 51.3406 223.987 51.6647C223.492 51.9888 222.926 52.2287 222.292 52.3842C221.67 52.5393 221.046 52.6278 220.42 52.6496L214.623 52.8517L214.128 38.7003ZM217.444 44.2482L219.703 44.1694C219.943 44.1611 220.175 44.1263 220.4 44.0651C220.638 44.0034 220.848 43.9094 221.03 43.7829C221.212 43.6565 221.353 43.4915 221.453 43.2879C221.566 43.0839 221.618 42.8419 221.608 42.5621C221.598 42.2689 221.522 42.0314 221.383 41.8495C221.256 41.6538 221.091 41.5061 220.887 41.4065C220.683 41.3069 220.454 41.2415 220.2 41.2103C219.945 41.1658 219.697 41.1478 219.457 41.1562L217.339 41.23L217.444 44.2482ZM217.649 50.1046L220.447 50.007C220.687 49.9987 220.926 49.9637 221.164 49.902C221.415 49.8399 221.639 49.7387 221.834 49.5985C222.029 49.4583 222.183 49.2795 222.295 49.0621C222.421 48.8442 222.479 48.5821 222.468 48.2756C222.456 47.9424 222.36 47.679 222.18 47.4851C222.013 47.2775 221.801 47.1248 221.544 47.027C221.287 46.9292 221.011 46.8655 220.717 46.8357C220.422 46.806 220.148 46.7955 219.895 46.8043L217.536 46.8866L217.649 50.1046ZM227.089 38.2485L232.566 38.0575C233.285 38.0324 233.967 38.082 234.612 38.2063C235.27 38.3168 235.844 38.5303 236.336 38.8467C236.84 39.1493 237.242 39.5755 237.541 40.1254C237.853 40.6615 238.024 41.3427 238.053 42.1688C238.088 43.1682 237.858 44.0301 237.363 44.7545C236.867 45.4655 236.123 45.9317 235.13 46.1531L238.937 52.004L235.199 52.1343L232.043 46.5809L230.504 46.6346L230.702 52.2911L227.584 52.3998L227.089 38.2485ZM230.412 43.9962L232.251 43.9321C232.531 43.9223 232.824 43.9054 233.13 43.8814C233.449 43.8436 233.733 43.7737 233.983 43.6716C234.232 43.5561 234.433 43.389 234.586 43.1703C234.751 42.951 234.828 42.6482 234.814 42.2617C234.802 41.902 234.718 41.618 234.564 41.4099C234.41 41.2018 234.218 41.0484 233.988 40.9497C233.757 40.8377 233.494 40.7668 233.2 40.7371C232.905 40.7073 232.618 40.6973 232.338 40.7071L230.299 40.7781L230.412 43.9962ZM244.707 37.6342L247.286 37.5443L253.937 51.481L250.419 51.6037L249.095 48.648L243.598 48.8397L242.524 51.879L239.086 51.9988L244.707 37.6342ZM246.05 41.7099L244.485 46.1671L247.943 46.0466L246.05 41.7099ZM254.865 37.2801L259.103 37.1323L265.463 46.7566L265.503 46.7552L265.159 36.9212L268.277 36.8125L268.772 50.9638L264.694 51.106L258.166 41.2475L258.126 41.2489L258.478 51.3227L255.36 51.4314L254.865 37.2801ZM273.999 39.3747L269.961 39.5154L269.865 36.7571L281.058 36.3669L281.154 39.1252L277.117 39.266L277.515 50.659L274.397 50.7677L273.999 39.3747ZM282.761 36.3075L292.375 35.9723L292.476 38.8505L285.98 39.077L286.072 41.7154L292.209 41.5015L292.309 44.3797L286.173 44.5937L286.274 47.4719L293.129 47.2329L293.23 50.1111L283.256 50.4588L282.761 36.3075ZM302.348 39.0867C302.084 38.7757 301.729 38.5546 301.284 38.4234C300.852 38.2783 300.443 38.2126 300.056 38.226C299.83 38.2339 299.598 38.2687 299.36 38.3304C299.122 38.392 298.898 38.4866 298.689 38.6139C298.48 38.728 298.312 38.8806 298.185 39.0718C298.058 39.263 297.999 39.4918 298.009 39.7583C298.024 40.1847 298.195 40.5056 298.523 40.721C298.85 40.9364 299.257 41.1157 299.742 41.2588C300.241 41.4015 300.773 41.5431 301.338 41.6835C301.903 41.8239 302.431 42.0323 302.921 42.3087C303.424 42.5847 303.844 42.9636 304.181 43.4455C304.519 43.9274 304.701 44.5814 304.73 45.4075C304.758 46.1937 304.635 46.8851 304.363 47.4816C304.09 48.0781 303.707 48.5785 303.214 48.9825C302.735 49.3862 302.165 49.6929 301.506 49.9026C300.859 50.112 300.169 50.2294 299.437 50.2549C298.517 50.287 297.659 50.1768 296.863 49.9244C296.067 49.672 295.319 49.2445 294.617 48.6419L296.751 46.126C297.085 46.5413 297.497 46.8605 297.985 47.0836C298.486 47.2929 298.996 47.3886 299.516 47.3704C299.769 47.3616 300.021 47.3261 300.273 47.264C300.537 47.1881 300.767 47.0867 300.962 46.9598C301.171 46.8324 301.333 46.6734 301.446 46.4826C301.573 46.2914 301.632 46.0693 301.623 45.8161C301.608 45.3897 301.43 45.0623 301.088 44.8341C300.759 44.5921 300.346 44.393 299.846 44.237C299.347 44.081 298.808 43.9263 298.229 43.7731C297.65 43.6198 297.109 43.4052 296.606 43.1293C296.102 42.8533 295.676 42.4813 295.326 42.0132C294.989 41.5446 294.807 40.9172 294.78 40.1311C294.753 39.3715 294.877 38.7001 295.15 38.1169C295.436 37.5333 295.819 37.0396 296.299 36.636C296.791 36.2319 297.361 35.9252 298.007 35.7159C298.653 35.4933 299.323 35.3699 300.016 35.3457C300.815 35.3178 301.592 35.4042 302.346 35.6047C303.1 35.8052 303.787 36.1615 304.405 36.6736L302.348 39.0867Z" fill="#0175B3"/>
</g>
<g filter="url(#filter1_d_74_104)">
<rect width="167" height="64" rx="10" transform="matrix(0.999252 0.0386789 -0.0388039 0.999247 244.325 95.5725)" fill="white" shape-rendering="crispEdges"/>
<path d="M264.789 121.223L269.506 121.406L272.405 130.765L272.445 130.766L276.081 121.66L280.777 121.842L280.228 135.991L277.11 135.871L277.531 125.019L277.491 125.017L273.353 135.725L270.975 135.633L267.819 124.643L267.779 124.641L267.357 135.493L264.24 135.373L264.789 121.223ZM288.318 122.134L290.896 122.234L296.502 136.621L292.985 136.485L291.882 133.44L286.386 133.228L285.091 136.18L281.653 136.047L288.318 122.134ZM289.357 126.297L287.468 130.627L290.925 130.761L289.357 126.297ZM298.435 122.526L301.553 122.646L301.003 136.796L297.885 136.675L298.435 122.526ZM311.249 126.484C311.008 126.155 310.671 125.908 310.237 125.744C309.817 125.568 309.413 125.472 309.027 125.457C308.801 125.449 308.566 125.466 308.324 125.51C308.083 125.554 307.853 125.632 307.635 125.744C307.418 125.842 307.239 125.982 307.098 126.163C306.958 126.345 306.882 126.569 306.872 126.835C306.855 127.262 307.003 127.594 307.314 127.833C307.625 128.072 308.017 128.281 308.49 128.459C308.977 128.638 309.497 128.818 310.05 129C310.604 129.181 311.115 129.428 311.583 129.74C312.064 130.052 312.455 130.461 312.756 130.966C313.057 131.471 313.191 132.137 313.159 132.963C313.128 133.749 312.955 134.429 312.639 135.004C312.323 135.579 311.905 136.05 311.384 136.417C310.876 136.784 310.285 137.048 309.611 137.209C308.951 137.37 308.255 137.437 307.522 137.408C306.603 137.373 305.756 137.2 304.98 136.89C304.205 136.579 303.49 136.098 302.835 135.445L305.148 133.093C305.451 133.532 305.838 133.88 306.308 134.139C306.792 134.384 307.294 134.517 307.814 134.537C308.067 134.547 308.321 134.53 308.576 134.487C308.845 134.431 309.082 134.346 309.287 134.234C309.505 134.122 309.677 133.976 309.804 133.794C309.945 133.612 310.02 133.395 310.03 133.142C310.046 132.716 309.893 132.376 309.569 132.123C309.259 131.858 308.861 131.629 308.375 131.437C307.888 131.244 307.362 131.051 306.796 130.855C306.23 130.66 305.706 130.406 305.224 130.094C304.743 129.782 304.345 129.379 304.03 128.887C303.729 128.395 303.594 127.756 303.624 126.97C303.654 126.21 303.826 125.55 304.142 124.988C304.47 124.427 304.889 123.963 305.397 123.596C305.918 123.229 306.509 122.965 307.169 122.804C307.829 122.629 308.506 122.555 309.199 122.582C309.998 122.613 310.767 122.756 311.504 123.011C312.241 123.267 312.899 123.673 313.478 124.229L311.249 126.484ZM321.778 123.429L326.494 123.612L329.393 132.971L329.433 132.972L333.069 123.866L337.766 124.048L337.216 138.197L334.099 138.077L334.52 127.225L334.48 127.223L330.341 137.931L327.963 137.839L324.807 126.849L324.767 126.847L324.346 137.699L321.228 137.578L321.778 123.429ZM345.307 124.34L347.885 124.44L353.491 138.827L349.973 138.691L348.871 135.646L343.375 135.433L342.079 138.386L338.642 138.253L345.307 124.34ZM346.346 128.503L344.457 132.833L347.914 132.967L346.346 128.503ZM364.574 128.768C364.282 128.384 363.913 128.082 363.468 127.865C363.036 127.648 362.527 127.528 361.941 127.506C361.354 127.483 360.804 127.575 360.289 127.782C359.787 127.989 359.342 128.292 358.952 128.691C358.577 129.077 358.272 129.545 358.037 130.097C357.816 130.648 357.692 131.251 357.667 131.904C357.641 132.57 357.717 133.187 357.895 133.754C358.087 134.308 358.355 134.799 358.699 135.226C359.043 135.64 359.45 135.969 359.921 136.214C360.405 136.46 360.927 136.593 361.487 136.615C362.126 136.64 362.698 136.528 363.201 136.281C363.704 136.034 364.125 135.676 364.464 135.209L366.986 137.248C366.354 138.064 365.571 138.654 364.636 139.019C363.701 139.383 362.747 139.546 361.775 139.508C360.669 139.465 359.656 139.253 358.737 138.87C357.818 138.488 357.031 137.964 356.377 137.298C355.722 136.619 355.22 135.812 354.869 134.878C354.532 133.944 354.385 132.911 354.429 131.778C354.473 130.646 354.7 129.627 355.108 128.722C355.53 127.818 356.094 127.059 356.798 126.446C357.503 125.819 358.328 125.351 359.274 125.041C360.22 124.73 361.246 124.597 362.352 124.639C362.752 124.655 363.163 124.711 363.587 124.807C364.024 124.891 364.446 125.021 364.852 125.197C365.273 125.373 365.671 125.602 366.047 125.883C366.423 126.165 366.757 126.505 367.048 126.903L364.574 128.768ZM369.105 125.261L372.222 125.382L371.673 139.531L368.555 139.41L369.105 125.261ZM374.024 132.537C374.068 131.404 374.294 130.386 374.703 129.481C375.125 128.576 375.688 127.818 376.393 127.204C377.097 126.578 377.923 126.109 378.869 125.799C379.815 125.489 380.841 125.355 381.947 125.398C383.053 125.441 384.065 125.653 384.984 126.036C385.904 126.418 386.69 126.949 387.344 127.628C387.999 128.294 388.495 129.094 388.832 130.028C389.183 130.962 389.336 131.995 389.293 133.128C389.249 134.26 389.016 135.279 388.593 136.183C388.185 137.088 387.628 137.854 386.923 138.48C386.219 139.093 385.394 139.555 384.447 139.865C383.501 140.176 382.475 140.31 381.37 140.267C380.264 140.224 379.251 140.011 378.332 139.629C377.413 139.246 376.626 138.722 375.971 138.056C375.317 137.377 374.815 136.57 374.464 135.636C374.127 134.702 373.98 133.669 374.024 132.537ZM377.262 132.662C377.236 133.328 377.312 133.945 377.49 134.512C377.682 135.067 377.963 135.558 378.333 135.986C378.704 136.401 379.152 136.732 379.676 136.979C380.213 137.226 380.815 137.363 381.481 137.389C382.147 137.415 382.751 137.325 383.293 137.119C383.848 136.913 384.327 136.618 384.729 136.234C385.131 135.836 385.443 135.367 385.664 134.829C385.899 134.277 386.029 133.669 386.055 133.002C386.08 132.35 385.997 131.739 385.806 131.171C385.628 130.604 385.353 130.113 384.982 129.699C384.612 129.271 384.158 128.933 383.621 128.685C383.096 128.438 382.501 128.302 381.835 128.276C381.169 128.25 380.558 128.34 380.003 128.545C379.462 128.751 378.99 129.053 378.587 129.451C378.185 129.836 377.867 130.304 377.632 130.855C377.41 131.407 377.287 132.009 377.262 132.662Z" fill="#6D2382"/>
</g>
<g filter="url(#filter2_d_74_104)">
<rect width="235" height="64" rx="10" transform="matrix(0.997246 0.0741642 -0.0744029 0.997228 151.081 169.205)" fill="white" shape-rendering="crispEdges"/>
<path d="M170.682 195.571L175.927 195.961C176.658 196.016 177.345 196.133 177.987 196.315C178.628 196.496 179.176 196.771 179.63 197.139C180.098 197.495 180.451 197.962 180.688 198.541C180.94 199.108 181.035 199.811 180.972 200.648C180.911 201.473 180.726 202.154 180.419 202.693C180.111 203.231 179.712 203.65 179.222 203.947C178.732 204.245 178.162 204.444 177.513 204.542C176.865 204.628 176.169 204.643 175.424 204.588L173.15 204.418L172.74 209.923L169.628 209.692L170.682 195.571ZM173.347 201.786L175.421 201.94C175.7 201.961 175.968 201.954 176.225 201.92C176.495 201.886 176.734 201.817 176.942 201.712C177.165 201.595 177.344 201.435 177.479 201.231C177.629 201.015 177.717 200.74 177.741 200.408C177.768 200.049 177.703 199.757 177.546 199.531C177.403 199.293 177.203 199.104 176.946 198.965C176.703 198.827 176.422 198.732 176.105 198.682C175.789 198.618 175.485 198.576 175.192 198.554L173.597 198.435L173.347 201.786ZM181.96 203.509C182.044 202.379 182.307 201.369 182.748 200.479C183.202 199.591 183.791 198.852 184.517 198.265C185.244 197.663 186.086 197.225 187.042 196.948C187.999 196.672 189.029 196.574 190.132 196.657C191.236 196.739 192.24 196.987 193.145 197.402C194.05 197.817 194.818 198.375 195.447 199.077C196.078 199.766 196.545 200.583 196.849 201.528C197.166 202.474 197.282 203.512 197.198 204.643C197.114 205.773 196.844 206.782 196.39 207.671C195.95 208.561 195.366 209.306 194.639 209.907C193.913 210.495 193.072 210.927 192.116 211.204C191.159 211.48 190.129 211.577 189.025 211.495C187.922 211.413 186.917 211.165 186.012 210.75C185.107 210.335 184.34 209.783 183.709 209.094C183.08 208.392 182.606 207.568 182.289 206.622C181.985 205.677 181.876 204.64 181.96 203.509ZM185.191 203.75C185.141 204.414 185.195 205.033 185.353 205.607C185.525 206.168 185.789 206.669 186.144 207.11C186.499 207.537 186.935 207.884 187.45 208.149C187.978 208.416 188.575 208.574 189.24 208.623C189.904 208.673 190.511 208.604 191.06 208.418C191.622 208.232 192.111 207.954 192.526 207.584C192.942 207.201 193.271 206.744 193.511 206.213C193.765 205.671 193.917 205.067 193.967 204.402C194.015 203.751 193.954 203.138 193.783 202.564C193.625 201.99 193.368 201.49 193.013 201.062C192.658 200.621 192.216 200.268 191.688 200.001C191.173 199.736 190.583 199.578 189.918 199.529C189.253 199.479 188.64 199.547 188.078 199.733C187.529 199.919 187.047 200.204 186.63 200.588C186.215 200.958 185.88 201.414 185.626 201.957C185.384 202.501 185.24 203.098 185.191 203.75ZM199.839 197.739L204.068 198.054L209.339 208.313L209.379 208.316L210.111 198.503L213.222 198.735L212.169 212.855L208.1 212.553L202.687 202.043L202.647 202.04L201.897 212.092L198.786 211.86L199.839 197.739ZM218.63 201.905L214.601 201.605L214.807 198.853L225.976 199.683L225.77 202.436L221.742 202.136L220.893 213.504L217.782 213.273L218.63 201.905ZM230.372 200.01L232.945 200.201L238.034 214.779L234.524 214.518L233.531 211.436L228.046 211.028L226.646 213.932L223.215 213.677L230.372 200.01ZM231.262 204.208L229.22 208.468L232.67 208.725L231.262 204.208ZM246.41 201.203L251.875 201.609C252.593 201.663 253.266 201.786 253.893 201.98C254.535 202.161 255.082 202.436 255.536 202.804C256.004 203.16 256.357 203.627 256.595 204.206C256.847 204.773 256.942 205.469 256.88 206.293C256.806 207.291 256.483 208.122 255.912 208.788C255.342 209.441 254.551 209.824 253.54 209.936L256.685 216.166L252.955 215.889L250.425 210.025L248.889 209.911L248.468 215.555L245.356 215.324L246.41 201.203ZM249.085 207.278L250.92 207.414C251.2 207.435 251.493 207.45 251.799 207.46C252.121 207.457 252.411 207.418 252.67 207.344C252.931 207.256 253.149 207.112 253.324 206.911C253.513 206.712 253.622 206.419 253.651 206.033C253.677 205.674 253.626 205.383 253.495 205.159C253.365 204.936 253.191 204.762 252.973 204.639C252.755 204.503 252.502 204.403 252.213 204.342C251.923 204.28 251.639 204.239 251.359 204.218L249.325 204.067L249.085 207.278ZM259.463 202.174L269.056 202.887L268.842 205.759L262.36 205.277L262.163 207.91L268.287 208.365L268.072 211.237L261.949 210.782L261.735 213.654L268.576 214.162L268.362 217.034L258.409 216.294L259.463 202.174ZM278.629 207.069C278.4 206.731 278.072 206.472 277.644 206.293C277.231 206.102 276.831 205.992 276.445 205.964C276.219 205.947 275.985 205.956 275.741 205.991C275.498 206.027 275.266 206.096 275.044 206.2C274.823 206.291 274.64 206.424 274.493 206.6C274.346 206.777 274.262 206.998 274.243 207.264C274.211 207.689 274.346 208.027 274.648 208.277C274.951 208.526 275.335 208.749 275.802 208.944C276.282 209.14 276.795 209.339 277.342 209.54C277.888 209.741 278.39 210.006 278.847 210.334C279.317 210.663 279.693 211.085 279.976 211.601C280.258 212.117 280.369 212.787 280.307 213.611C280.249 214.395 280.051 215.069 279.715 215.633C279.379 216.196 278.944 216.652 278.41 217C277.889 217.349 277.289 217.591 276.611 217.728C275.945 217.866 275.247 217.908 274.515 217.853C273.598 217.785 272.757 217.582 271.994 217.244C271.23 216.907 270.533 216.4 269.901 215.725L272.296 213.456C272.584 213.906 272.958 214.268 273.419 214.543C273.894 214.805 274.391 214.956 274.909 214.994C275.162 215.013 275.417 215.005 275.673 214.971C275.944 214.924 276.184 214.849 276.392 214.744C276.614 214.64 276.791 214.499 276.925 214.322C277.072 214.146 277.155 213.931 277.173 213.679C277.205 213.253 277.064 212.909 276.749 212.644C276.449 212.368 276.059 212.125 275.58 211.916C275.101 211.706 274.582 211.494 274.023 211.279C273.464 211.063 272.95 210.791 272.48 210.462C272.01 210.133 271.626 209.716 271.33 209.213C271.046 208.711 270.934 208.067 270.992 207.283C271.049 206.525 271.245 205.871 271.58 205.321C271.928 204.772 272.363 204.323 272.884 203.974C273.418 203.626 274.017 203.383 274.683 203.245C275.349 203.094 276.028 203.045 276.72 203.096C277.517 203.155 278.28 203.326 279.008 203.607C279.736 203.888 280.379 204.317 280.938 204.894L278.629 207.069ZM283.319 203.948L286.43 204.179L285.377 218.3L282.265 218.068L283.319 203.948ZM295.984 208.359C295.755 208.021 295.427 207.763 294.999 207.584C294.585 207.393 294.185 207.283 293.8 207.254C293.574 207.237 293.339 207.247 293.096 207.282C292.853 207.317 292.62 207.387 292.398 207.491C292.178 207.581 291.994 207.715 291.847 207.891C291.7 208.067 291.617 208.288 291.597 208.554C291.565 208.98 291.701 209.317 292.003 209.567C292.305 209.817 292.69 210.039 293.156 210.235C293.636 210.431 294.15 210.629 294.696 210.83C295.243 211.032 295.745 211.296 296.201 211.624C296.672 211.953 297.048 212.376 297.33 212.892C297.613 213.407 297.723 214.077 297.662 214.902C297.603 215.686 297.406 216.36 297.07 216.923C296.733 217.487 296.298 217.942 295.764 218.29C295.243 218.639 294.644 218.882 293.965 219.019C293.3 219.157 292.601 219.198 291.87 219.144C290.952 219.076 290.112 218.873 289.348 218.535C288.585 218.198 287.887 217.691 287.255 217.016L289.651 214.747C289.938 215.196 290.312 215.558 290.773 215.833C291.248 216.096 291.745 216.247 292.264 216.285C292.516 216.304 292.771 216.296 293.028 216.262C293.298 216.215 293.538 216.139 293.746 216.034C293.968 215.931 294.146 215.79 294.279 215.613C294.426 215.436 294.509 215.222 294.528 214.969C294.56 214.544 294.418 214.199 294.104 213.935C293.803 213.659 293.414 213.416 292.935 213.206C292.456 212.997 291.937 212.785 291.378 212.569C290.819 212.354 290.304 212.082 289.834 211.752C289.364 211.423 288.981 211.007 288.684 210.504C288.401 210.001 288.288 209.358 288.347 208.573C288.403 207.815 288.599 207.162 288.934 206.612C289.283 206.063 289.717 205.614 290.238 205.265C290.772 204.917 291.372 204.674 292.037 204.536C292.704 204.385 293.383 204.335 294.074 204.387C294.872 204.446 295.635 204.616 296.362 204.898C297.09 205.179 297.733 205.608 298.292 206.184L295.984 208.359ZM303.24 208.197L299.211 207.897L299.417 205.145L310.586 205.976L310.381 208.728L306.352 208.428L305.503 219.797L302.392 219.565L303.24 208.197ZM312.286 206.102L321.879 206.815L321.665 209.687L315.183 209.205L314.986 211.838L321.109 212.293L320.895 215.165L314.772 214.71L314.558 217.582L321.399 218.091L321.185 220.963L311.232 220.223L312.286 206.102ZM324.729 207.027L328.957 207.342L334.229 217.601L334.268 217.604L335.001 207.791L338.112 208.023L337.058 222.143L332.99 221.841L327.577 211.33L327.537 211.327L326.787 221.38L323.675 221.148L324.729 207.027ZM343.52 211.192L339.491 210.893L339.696 208.14L350.865 208.971L350.66 211.723L346.631 211.424L345.783 222.792L342.671 222.561L343.52 211.192ZM352.565 209.098L362.158 209.811L361.944 212.683L355.462 212.201L355.266 214.834L361.389 215.289L361.174 218.161L355.051 217.706L354.837 220.578L361.678 221.086L361.464 223.958L351.511 223.218L352.565 209.098Z" fill="#5BB12F"/>
</g>
<g filter="url(#filter3_d_74_104)">
<rect width="234" height="64" rx="10" transform="matrix(0.997946 -0.0640569 0.0642633 0.997933 49.8011 264.791)" fill="white" shape-rendering="crispEdges"/>
<path d="M73.2329 288.178L82.7134 287.57L82.8984 290.444L76.5315 290.853L76.7166 293.727L82.6045 293.349L82.7896 296.223L76.9017 296.601L77.2564 302.109L74.1428 302.309L73.2329 288.178ZM88.5032 287.198L91.0779 287.033L98.1352 300.769L94.6224 300.995L93.2121 298.079L87.7234 298.431L86.7386 301.501L83.3057 301.721L88.5032 287.198ZM89.9655 291.233L88.5318 295.734L91.9846 295.512L89.9655 291.233ZM89.5885 283.201L93.6601 282.939L90.3923 286.035L87.7577 286.204L89.5885 283.201ZM108.124 289.626C107.794 289.273 107.396 289.012 106.931 288.841C106.479 288.67 105.96 288.603 105.375 288.64C104.789 288.678 104.251 288.826 103.76 289.085C103.282 289.343 102.871 289.69 102.525 290.126C102.191 290.548 101.936 291.046 101.759 291.618C101.595 292.19 101.534 292.802 101.576 293.454C101.619 294.119 101.758 294.725 101.994 295.271C102.242 295.803 102.559 296.263 102.945 296.653C103.33 297.029 103.769 297.314 104.263 297.51C104.77 297.705 105.302 297.784 105.861 297.748C106.5 297.707 107.057 297.538 107.532 297.24C108.007 296.942 108.389 296.544 108.678 296.044L111.397 297.814C110.852 298.69 110.133 299.358 109.241 299.816C108.349 300.274 107.417 300.534 106.445 300.596C105.341 300.667 104.312 300.56 103.358 300.274C102.405 299.987 101.568 299.547 100.848 298.952C100.128 298.343 99.5448 297.592 99.0998 296.699C98.6681 295.805 98.4159 294.792 98.343 293.661C98.2702 292.53 98.3905 291.494 98.704 290.552C99.0307 289.609 99.5128 288.796 100.15 288.114C100.787 287.419 101.56 286.868 102.469 286.462C103.378 286.056 104.385 285.818 105.489 285.747C105.888 285.722 106.303 285.735 106.734 285.788C107.178 285.826 107.611 285.912 108.034 286.045C108.47 286.177 108.889 286.364 109.292 286.605C109.695 286.847 110.062 287.15 110.393 287.517L108.124 289.626ZM112.27 285.673L115.383 285.473L116.293 299.604L113.18 299.803L112.27 285.673ZM118.335 285.283L121.449 285.084L122.174 296.34L127.942 295.97L128.127 298.844L119.245 299.414L118.335 285.283ZM134.842 284.224L139.512 283.924C140.643 283.851 141.722 283.909 142.75 284.097C143.791 284.284 144.709 284.639 145.504 285.163C146.298 285.673 146.944 286.366 147.442 287.243C147.952 288.119 148.249 289.202 148.332 290.493C148.406 291.637 148.252 292.662 147.869 293.569C147.499 294.461 146.967 295.23 146.274 295.875C145.58 296.508 144.764 297.008 143.825 297.375C142.887 297.743 141.892 297.96 140.841 298.028L135.752 298.355L134.842 284.224ZM138.68 295.281L140.297 295.177C141.015 295.131 141.676 295.015 142.278 294.829C142.894 294.643 143.418 294.369 143.849 294.007C144.279 293.632 144.603 293.164 144.821 292.602C145.051 292.026 145.14 291.339 145.089 290.54C145.044 289.849 144.872 289.258 144.574 288.77C144.288 288.267 143.914 287.864 143.454 287.559C142.993 287.255 142.458 287.042 141.849 286.921C141.253 286.785 140.628 286.738 139.976 286.78L138.14 286.898L138.68 295.281ZM150.106 283.244L159.706 282.628L159.891 285.502L153.405 285.918L153.574 288.553L159.702 288.159L159.887 291.034L153.759 291.427L153.944 294.301L160.79 293.861L160.975 296.736L151.016 297.375L150.106 283.244ZM173.114 281.767L175.689 281.602L182.746 295.338L179.233 295.564L177.823 292.648L172.334 293L171.35 296.07L167.917 296.29L173.114 281.767ZM174.576 285.802L173.143 290.303L176.596 290.081L174.576 285.802ZM183.258 281.116L188.507 280.779C189.239 280.732 189.935 280.754 190.595 280.846C191.256 280.937 191.836 281.133 192.337 281.435C192.85 281.723 193.264 282.137 193.579 282.678C193.907 283.205 194.098 283.887 194.152 284.726C194.205 285.551 194.117 286.251 193.886 286.827C193.656 287.403 193.319 287.872 192.875 288.235C192.431 288.597 191.894 288.872 191.265 289.06C190.634 289.234 189.947 289.345 189.202 289.392L186.926 289.538L187.281 295.047L184.167 295.247L183.258 281.116ZM186.757 286.904L188.832 286.771C189.112 286.753 189.376 286.709 189.626 286.64C189.888 286.569 190.116 286.468 190.307 286.335C190.512 286.188 190.667 286.005 190.773 285.784C190.892 285.55 190.94 285.266 190.919 284.933C190.896 284.574 190.791 284.293 190.604 284.092C190.43 283.876 190.206 283.716 189.932 283.614C189.671 283.51 189.381 283.455 189.059 283.449C188.738 283.43 188.43 283.43 188.137 283.448L186.541 283.551L186.757 286.904ZM195.526 287.423C195.453 286.292 195.573 285.256 195.887 284.314C196.214 283.371 196.696 282.558 197.333 281.876C197.97 281.18 198.743 280.63 199.652 280.224C200.561 279.818 201.568 279.58 202.672 279.509C203.776 279.438 204.805 279.546 205.759 279.832C206.713 280.118 207.55 280.566 208.271 281.174C208.99 281.769 209.566 282.514 209.998 283.408C210.443 284.301 210.702 285.313 210.774 286.444C210.847 287.575 210.72 288.612 210.394 289.555C210.08 290.497 209.605 291.316 208.969 292.012C208.331 292.694 207.558 293.238 206.649 293.643C205.739 294.049 204.733 294.288 203.628 294.358C202.524 294.429 201.495 294.322 200.541 294.036C199.587 293.749 198.751 293.309 198.031 292.714C197.31 292.105 196.728 291.354 196.283 290.461C195.851 289.567 195.599 288.554 195.526 287.423ZM198.759 287.216C198.802 287.881 198.941 288.487 199.177 289.033C199.425 289.564 199.755 290.024 200.168 290.412C200.579 290.786 201.058 291.07 201.605 291.262C202.165 291.453 202.778 291.527 203.443 291.484C204.109 291.442 204.7 291.29 205.218 291.03C205.749 290.769 206.194 290.426 206.554 290.002C206.914 289.565 207.176 289.067 207.34 288.509C207.517 287.936 207.584 287.317 207.541 286.652C207.499 286 207.354 285.401 207.105 284.856C206.869 284.31 206.546 283.85 206.134 283.476C205.722 283.088 205.235 282.798 204.675 282.607C204.128 282.415 203.522 282.341 202.857 282.383C202.192 282.426 201.594 282.578 201.063 282.839C200.545 283.099 200.107 283.448 199.747 283.886C199.387 284.309 199.119 284.808 198.942 285.38C198.778 285.952 198.717 286.564 198.759 287.216ZM212.436 279.243L216.667 278.972L223.307 288.406L223.347 288.403L222.715 278.583L225.828 278.384L226.738 292.514L222.667 292.776L215.851 283.112L215.812 283.115L216.459 293.174L213.346 293.374L212.436 279.243ZM231.623 280.777L227.591 281.036L227.414 278.282L238.591 277.564L238.768 280.319L234.736 280.577L235.469 291.954L232.355 292.154L231.623 280.777ZM242.99 277.282L245.565 277.117L252.622 290.853L249.109 291.078L247.699 288.163L242.21 288.515L241.225 291.584L237.792 291.805L242.99 277.282ZM244.452 281.317L243.019 285.818L246.471 285.596L244.452 281.317ZM253.133 276.631L258.602 276.28C259.321 276.234 260.004 276.263 260.652 276.369C261.313 276.46 261.893 276.656 262.393 276.958C262.906 277.246 263.32 277.66 263.636 278.201C263.964 278.728 264.154 279.404 264.207 280.229C264.272 281.227 264.067 282.095 263.593 282.834C263.119 283.559 262.389 284.047 261.403 284.297L265.38 290.034L261.648 290.273L258.33 284.815L256.793 284.913L257.157 290.562L254.043 290.762L253.133 276.631ZM256.623 282.279L258.46 282.161C258.739 282.143 259.031 282.118 259.337 282.085C259.654 282.038 259.936 281.959 260.183 281.85C260.429 281.727 260.625 281.554 260.771 281.331C260.93 281.107 260.998 280.802 260.973 280.416C260.95 280.057 260.858 279.776 260.698 279.572C260.538 279.369 260.341 279.221 260.108 279.129C259.874 279.024 259.61 278.961 259.314 278.94C259.019 278.919 258.732 278.917 258.452 278.935L256.417 279.066L256.623 282.279Z" fill="#F6961D"/>
</g>
<g filter="url(#filter4_d_74_104)">
<rect width="216" height="64" rx="10" transform="matrix(0.998634 -0.0522517 0.0524203 0.998625 10 101.884)" fill="white" shape-rendering="crispEdges"/>
<path d="M37.7488 125.306L40.3252 125.171L47.2191 138.99L43.7039 139.174L42.3283 136.241L36.8358 136.529L35.8147 139.586L32.3794 139.766L37.7488 125.306ZM39.1631 129.357L37.6761 133.841L41.1314 133.66L39.1631 129.357ZM48.0189 124.768L51.1347 124.605L51.726 135.87L57.4981 135.568L57.6491 138.444L48.7612 138.909L48.0189 124.768ZM59.6741 126.922L55.6396 127.134L55.495 124.377L66.6797 123.792L66.8243 126.548L62.7899 126.759L63.3875 138.144L60.2717 138.307L59.6741 126.922ZM71.0821 123.562L73.6586 123.427L80.5524 137.246L77.0372 137.43L75.6616 134.497L70.1691 134.785L69.148 137.842L65.7127 138.022L71.0821 123.562ZM72.4964 127.613L71.0094 132.097L74.4647 131.916L72.4964 127.613ZM103.363 136.052L94.7951 136.5C93.69 136.558 92.6563 136.452 91.6942 136.182C90.7446 135.898 89.9139 135.461 89.202 134.87C88.4901 134.28 87.9176 133.549 87.4847 132.677C87.0517 131.805 86.8051 130.797 86.745 129.652C86.6891 128.586 86.8308 127.598 87.1701 126.685C87.5228 125.772 88.0218 124.979 88.6673 124.304C89.3129 123.629 90.0859 123.095 90.9865 122.701C91.8864 122.293 92.8622 122.062 93.9141 122.007C94.966 121.952 95.9608 122.08 96.8984 122.391C97.836 122.703 98.6611 123.16 99.3738 123.764C100.086 124.367 100.659 125.105 101.092 125.977C101.538 126.835 101.788 127.796 101.844 128.862C101.871 129.368 101.837 129.863 101.742 130.349C101.661 130.834 101.518 131.295 101.314 131.733C101.11 132.171 100.838 132.573 100.496 132.938C100.154 133.289 99.7491 133.584 99.2809 133.822L99.283 133.862L103.238 133.655L103.363 136.052ZM89.9806 129.482C90.0128 130.095 90.156 130.661 90.4103 131.182C90.6646 131.703 90.9953 132.153 91.4024 132.532C91.8222 132.897 92.2976 133.18 92.8288 133.379C93.36 133.578 93.9251 133.662 94.5243 133.631C95.1235 133.599 95.6768 133.457 96.1842 133.203C96.6916 132.95 97.1282 132.62 97.4941 132.213C97.8726 131.793 98.161 131.311 98.3594 130.766C98.5578 130.222 98.641 129.643 98.6088 129.031C98.5767 128.418 98.4334 127.852 98.1791 127.331C97.9248 126.81 97.5878 126.367 97.1681 126.002C96.7609 125.623 96.2918 125.334 95.7606 125.134C95.2295 124.935 94.6643 124.851 94.0651 124.883C93.4659 124.914 92.9126 125.056 92.4052 125.31C91.8978 125.563 91.4549 125.9 91.0764 126.321C90.7105 126.727 90.4284 127.202 90.23 127.747C90.0316 128.291 89.9485 128.87 89.9806 129.482ZM116.53 129.896C116.574 130.734 116.488 131.513 116.272 132.232C116.056 132.951 115.709 133.584 115.23 134.129C114.765 134.674 114.167 135.113 113.437 135.445C112.706 135.777 111.855 135.968 110.883 136.019C109.898 136.071 109.025 135.969 108.264 135.716C107.503 135.462 106.856 135.088 106.322 134.595C105.802 134.102 105.397 133.509 105.107 132.816C104.817 132.124 104.65 131.358 104.606 130.52L104.15 121.831L107.266 121.668L107.716 130.237C107.739 130.676 107.827 131.079 107.979 131.445C108.146 131.81 108.362 132.125 108.63 132.392C108.897 132.645 109.208 132.842 109.562 132.984C109.93 133.112 110.32 133.165 110.732 133.143C111.145 133.121 111.521 133.028 111.859 132.864C112.197 132.686 112.485 132.457 112.724 132.178C112.963 131.885 113.139 131.548 113.252 131.169C113.379 130.788 113.431 130.378 113.408 129.939L112.958 121.371L116.074 121.208L116.53 129.896ZM123.608 120.813L126.184 120.679L133.078 134.497L129.563 134.681L128.187 131.749L122.695 132.036L121.674 135.094L118.239 135.274L123.608 120.813ZM125.022 124.865L123.535 129.349L126.99 129.168L125.022 124.865ZM133.878 120.276L136.994 120.113L137.585 131.378L143.357 131.075L143.508 133.952L134.62 134.417L133.878 120.276ZM144.446 119.723L147.562 119.56L148.304 133.701L145.188 133.864L144.446 119.723ZM150.396 119.412L155.069 119.167C156.201 119.108 157.28 119.178 158.305 119.378C159.343 119.578 160.257 119.944 161.046 120.477C161.834 120.996 162.472 121.697 162.959 122.58C163.459 123.461 163.743 124.548 163.811 125.84C163.871 126.985 163.705 128.008 163.311 128.91C162.931 129.798 162.39 130.56 161.689 131.198C160.987 131.822 160.165 132.312 159.223 132.669C158.28 133.025 157.283 133.231 156.231 133.286L151.138 133.552L150.396 119.412ZM154.103 130.513L155.72 130.429C156.439 130.391 157.101 130.283 157.706 130.104C158.324 129.925 158.851 129.657 159.286 129.301C159.721 128.931 160.05 128.466 160.275 127.907C160.511 127.334 160.609 126.648 160.567 125.849C160.531 125.157 160.366 124.565 160.073 124.072C159.793 123.566 159.424 123.158 158.968 122.849C158.511 122.539 157.978 122.32 157.371 122.191C156.776 122.049 156.152 121.995 155.5 122.029L153.662 122.125L154.103 130.513ZM170.204 118.375L172.781 118.241L179.675 132.059L176.159 132.243L174.784 129.311L169.291 129.598L168.27 132.656L164.835 132.836L170.204 118.375ZM171.619 122.427L170.132 126.911L173.587 126.73L171.619 122.427ZM180.355 117.844L185.028 117.6C186.16 117.54 187.239 117.611 188.264 117.811C189.302 118.01 190.216 118.376 191.005 118.909C191.793 119.429 192.431 120.13 192.918 121.012C193.418 121.894 193.702 122.98 193.77 124.272C193.83 125.417 193.664 126.441 193.27 127.342C192.89 128.23 192.349 128.993 191.648 129.63C190.946 130.254 190.124 130.745 189.182 131.101C188.239 131.458 187.242 131.663 186.19 131.718L181.097 131.985L180.355 117.844ZM184.062 128.946L185.679 128.861C186.398 128.823 187.06 128.715 187.665 128.537C188.283 128.358 188.81 128.09 189.245 127.733C189.68 127.363 190.009 126.899 190.234 126.34C190.47 125.766 190.568 125.08 190.526 124.282C190.49 123.589 190.325 122.997 190.032 122.505C189.752 121.999 189.383 121.591 188.927 121.281C188.47 120.971 187.937 120.752 187.33 120.624C186.735 120.481 186.111 120.427 185.459 120.461L183.621 120.557L184.062 128.946ZM195.63 117.045L205.236 116.542L205.387 119.418L198.896 119.758L199.035 122.394L205.166 122.074L205.317 124.95L199.186 125.27L199.337 128.146L206.187 127.788L206.338 130.664L196.372 131.186L195.63 117.045Z" fill="#D90B43"/>
</g>
<defs>
<filter id="filter0_d_74_104" x="88.5576" y="0" width="248.1" height="91.8354" filterUnits="userSpaceOnUse" color-interpolation-filters="sRGB">
<feFlood flood-opacity="0" result="BackgroundImageFix"/>
<feColorMatrix in="SourceAlpha" type="matrix" values="0 0 0 0 0 0 0 0 0 0 0 0 0 0 0 0 0 0 127 0" result="hardAlpha"/>
<feOffset/>
<feGaussianBlur stdDeviation="5"/>
<feComposite in2="hardAlpha" operator="out"/>
<feColorMatrix type="matrix" values="0 0 0 0 0 0 0 0 0 0 0 0 0 0 0 0 0 0 0.2 0"/>
<feBlend mode="normal" in2="BackgroundImageFix" result="effect1_dropShadow_74_104"/>
<feBlend mode="normal" in="SourceGraphic" in2="effect1_dropShadow_74_104" result="shape"/>
</filter>
<filter id="filter1_d_74_104" x="231.842" y="85.5725" width="189.358" height="90.4112" filterUnits="userSpaceOnUse" color-interpolation-filters="sRGB">
<feFlood flood-opacity="0" result="BackgroundImageFix"/>
<feColorMatrix in="SourceAlpha" type="matrix" values="0 0 0 0 0 0 0 0 0 0 0 0 0 0 0 0 0 0 127 0" result="hardAlpha"/>
<feOffset/>
<feGaussianBlur stdDeviation="5"/>
<feComposite in2="hardAlpha" operator="out"/>
<feColorMatrix type="matrix" values="0 0 0 0 0 0 0 0 0 0 0 0 0 0 0 0 0 0 0.2 0"/>
<feBlend mode="normal" in2="BackgroundImageFix" result="effect1_dropShadow_74_104"/>
<feBlend mode="normal" in="SourceGraphic" in2="effect1_dropShadow_74_104" result="shape"/>
</filter>
<filter id="filter2_d_74_104" x="136.319" y="159.205" width="259.115" height="101.251" filterUnits="userSpaceOnUse" color-interpolation-filters="sRGB">
<feFlood flood-opacity="0" result="BackgroundImageFix"/>
<feColorMatrix in="SourceAlpha" type="matrix" values="0 0 0 0 0 0 0 0 0 0 0 0 0 0 0 0 0 0 127 0" result="hardAlpha"/>
<feOffset/>
<feGaussianBlur stdDeviation="5"/>
<feComposite in2="hardAlpha" operator="out"/>
<feColorMatrix type="matrix" values="0 0 0 0 0 0 0 0 0 0 0 0 0 0 0 0 0 0 0.2 0"/>
<feBlend mode="normal" in2="BackgroundImageFix" result="effect1_dropShadow_74_104"/>
<feBlend mode="normal" in="SourceGraphic" in2="effect1_dropShadow_74_104" result="shape"/>
</filter>
<filter id="filter3_d_74_104" x="39.8011" y="239.802" width="257.632" height="98.8571" filterUnits="userSpaceOnUse" color-interpolation-filters="sRGB">
<feFlood flood-opacity="0" result="BackgroundImageFix"/>
<feColorMatrix in="SourceAlpha" type="matrix" values="0 0 0 0 0 0 0 0 0 0 0 0 0 0 0 0 0 0 127 0" result="hardAlpha"/>
<feOffset/>
<feGaussianBlur stdDeviation="5"/>
<feComposite in2="hardAlpha" operator="out"/>
<feColorMatrix type="matrix" values="0 0 0 0 0 0 0 0 0 0 0 0 0 0 0 0 0 0 0.2 0"/>
<feBlend mode="normal" in2="BackgroundImageFix" result="effect1_dropShadow_74_104"/>
<feBlend mode="normal" in="SourceGraphic" in2="effect1_dropShadow_74_104" result="shape"/>
</filter>
<filter id="filter4_d_74_104" x="0" y="80.5974" width="239.06" height="95.1984" filterUnits="userSpaceOnUse" color-interpolation-filters="sRGB">
<feFlood flood-opacity="0" result="BackgroundImageFix"/>
<feColorMatrix in="SourceAlpha" type="matrix" values="0 0 0 0 0 0 0 0 0 0 0 0 0 0 0 0 0 0 127 0" result="hardAlpha"/>
<feOffset/>
<feGaussianBlur stdDeviation="5"/>
<feComposite in2="hardAlpha" operator="out"/>
<feColorMatrix type="matrix" values="0 0 0 0 0 0 0 0 0 0 0 0 0 0 0 0 0 0 0.2 0"/>
<feBlend mode="normal" in2="BackgroundImageFix" result="effect1_dropShadow_74_104"/>
<feBlend mode="normal" in="SourceGraphic" in2="effect1_dropShadow_74_104" result="shape"/>
</filter>
</defs>
</svg>
