<svg width="213" height="97" viewBox="0 0 213 97" fill="none" xmlns="http://www.w3.org/2000/svg">
<g clip-path="url(#clip0_59_44)">
<path d="M41.2969 56.969C43.6357 64.7283 50.8926 70.0195 61.9145 70.0195H163.318C164.341 70.0195 176.235 71.0319 185.251 62.7663C204.549 45.0751 206.574 21.0803 205.288 13.5538C203.748 4.52707 195.682 1.97389 190.206 1.97389H82.8684C77.5144 1.97389 71.7134 1.70785 61.6263 10.6089C53.1206 18.1133 48.4613 26.9626 43.1924 39.6362C44.3378 33.1996 39.4235 26.8776 39.4235 26.8776C42.3832 24.1508 44.2343 20.2416 44.2343 15.9C44.2343 7.65667 37.5502 0.972565 29.3032 0.972565C21.0561 0.972565 13.7623 7.38324 13.7623 15.6303C13.7623 17.33 14.0469 18.9594 14.5715 20.4817C14.5715 20.4817 9.13631 17.0491 7.41817 16.1919C5.70373 15.3347 2.69977 14.6179 1.26983 16.4764C-0.160097 18.335 -0.304199 21.7676 1.26983 24.3429C2.84387 26.9183 7.99089 34.4965 12.9975 37.216C12.9975 37.216 12.4248 43.6525 16.4301 46.0838C16.4301 46.0838 16.286 50.5177 18.1445 51.6631C18.1445 51.6631 18.429 53.8099 19.4303 54.3826V58.9569C19.4303 58.9569 13.9951 63.5349 16.7146 67.5402C19.4303 71.5455 25.8669 69.5428 27.1564 68.6856C27.1564 68.6856 36.3087 71.2609 38.1673 67.2557C40.0258 63.2504 38.4518 60.3905 36.3087 58.9606V55.0994L41.2969 56.9764V56.969Z" fill="white"/>
<path d="M18.4326 16.4764C18.4326 10.79 23.0439 6.17871 28.7304 6.17871C34.4168 6.17871 39.0281 10.79 39.0281 16.4764C39.0281 22.1629 34.4168 26.7742 28.7304 26.7742C23.0439 26.7742 18.4326 22.1629 18.4326 16.4764Z" fill="#1D1D1B"/>
<path d="M21.795 14.4738C21.795 12.4601 23.4282 10.8306 25.4419 10.8306C27.4557 10.8306 29.0851 12.4601 29.0851 14.4738C29.0851 16.4875 27.452 18.117 25.4419 18.117C23.4319 18.117 21.795 16.4875 21.795 14.4738Z" fill="white"/>
<path d="M4.27004 21.8156C5.24919 26.2273 10.3001 30.7979 14.1429 33.6763C14.4274 33.8906 15.0703 34.6406 14.9299 33.3179C14.9299 33.3179 14.9299 32.675 15.4324 33.1738C15.9312 33.6763 37.4097 50.2332 38.3889 50.9796C38.9949 51.4451 39.5491 51.652 39.9629 51.8368C40.7056 52.1693 41.2525 52.5499 41.6441 52.694C42.324 52.9453 42.5013 52.8012 42.1429 52.2284C41.9767 51.9661 41.4113 51.0239 41.1786 50.6544C40.7906 50.0374 40.4987 49.5459 39.9999 49.1173C39.2683 48.4929 19.87 31.5628 19.87 31.5628C19.87 31.5628 6.50916 19.8203 5.85146 19.1183C5.34895 18.5825 4.85014 18.117 4.67278 18.941C4.54716 19.51 4.17397 21.3353 4.27743 21.8119" fill="#1D1D1B"/>
<path d="M35.5586 46.2981L36.5045 46.0653C36.1461 45.1711 36.9331 44.5652 37.0218 44.155C37.1991 43.3311 37.4135 35.5385 36.7705 34.0716C36.2459 32.8819 32.3699 28.1376 31.8711 28.0637C31.3686 27.9935 30.9769 29.1389 30.8698 29.4234C30.7294 29.7966 30.0827 31.3706 29.6911 31.3706C29.2994 31.3706 28.8339 29.7449 28.978 29.4936C29.1184 29.2461 29.2994 28.7066 29.5137 28.241C29.728 27.7755 29.3364 27.7385 29.0851 27.7755C28.7674 27.8198 27.851 27.7755 27.851 27.7755C27.4926 27.7385 27.4593 28.06 27.5998 28.241C27.7439 28.4184 28.1466 29.2793 28.117 29.5638C27.9397 31.3522 27.2931 31.5 27.0825 30.9753C25.6341 27.3653 24.9172 28.0637 24.1154 28.241C23.2952 28.4184 21.7544 28.7399 20.7531 29.2054C19.7518 29.671 17.7159 39.8985 17.5718 40.8998C17.4313 41.9011 17.7491 41.9011 17.9634 42.0785C18.1777 42.2595 19.4303 42.9727 20.1471 43.3311C20.8602 43.6895 20.9674 43.937 20.9674 44.2622V48.9806C20.9674 49.4092 20.8085 50.5879 21.7211 50.5546C22.667 50.5177 22.6855 51.0904 22.7225 51.3417C22.7594 51.5929 22.438 53.4145 23.2582 53.4884C24.0785 53.5623 24.1524 53.614 24.1524 54.3456V60.675C24.1524 61.5692 24.1376 61.935 23.9011 62.0717C22.0426 63.1469 20.2506 65.508 21.2888 66.04C22.7557 66.7901 26.1513 63.679 27.2598 63.7159C27.8362 63.7344 28.117 64.1445 28.941 64.1815C29.4398 64.2037 29.7982 64.647 31.0878 65.2161C32.3736 65.7888 33.434 65.4932 33.4821 64.3921C33.519 63.6051 32.8391 62.9991 31.945 62.4634C31.0508 61.9276 30.9437 61.499 30.9437 61.499C30.9437 58.4248 31.2282 57.3533 31.2282 56.9949C31.2282 53.7064 31.8193 53.8283 32.3366 53.3849C32.5842 53.1706 32.4068 52.0622 32.4068 51.5966C32.4068 51.131 32.2997 50.6322 33.0165 50.6322C33.7333 50.6322 34.4464 50.4179 34.3725 49.775C34.2839 48.9658 34.3023 47.632 35.0007 48.3266L35.5549 46.3055L35.5586 46.2981Z" fill="#1D1D1B"/>
<path d="M18.8391 41.7755C19.3342 42.2485 20.1767 42.3556 20.827 42.5773C21.5069 42.8101 21.3997 41.3543 21.3997 41.1105C21.3997 40.5008 20.4464 40.0685 20.5425 39.4662C20.7383 38.2506 21.4182 36.211 21.8431 35.2799C21.8653 35.1764 22.0094 34.9436 22.135 34.9436C22.2606 34.9436 22.3013 35.0323 22.3087 35.3722C22.0389 40.0574 21.7618 44.1366 21.7618 48.9067C21.7618 50.4106 23.0846 50.078 23.6204 50.0854C26.6428 50.1334 29.6615 50.1223 32.8687 49.8933C33.3897 49.8563 33.6114 49.1506 33.6299 48.7959C33.7407 46.5235 33.2752 44.2068 33.4156 41.831C33.5043 40.3456 33.2382 37.216 33.9181 37.216C34.5979 37.216 33.4525 44.1551 34.561 45.7624C37.2768 45.0123 36.6745 39.1521 36.4195 35.4277C36.3161 33.8943 33.3454 30.3139 31.9856 29.1685C31.4388 30.1366 30.7922 31.2487 30.1973 32.2057C29.7317 32.9595 29.0186 34.3155 28.409 34.3155C27.9065 34.3155 26.7278 31.8842 26.1846 30.5282C25.9371 29.9075 25.357 28.7583 24.7621 28.8433C23.5465 29.0207 21.045 29.416 20.7568 30.3804C19.7 33.9497 18.8207 37.1162 18.3625 40.874C18.2775 41.5501 18.5325 41.4689 18.8428 41.7718" fill="#F39200"/>
<path d="M29.0519 50.514C29.6948 50.514 30.3747 50.7098 30.9474 50.7283C31.9302 50.7616 31.6642 51.7296 31.7012 52.2284C31.7381 52.731 31.1654 52.9416 30.6296 52.9416C30.0939 52.9416 29.5544 52.9785 29.1258 52.9416C28.6972 52.9046 28.1245 52.7642 28.1245 52.1546C28.1245 51.6853 28.1356 51.5301 28.1245 51.386C28.0875 50.9204 28.3388 50.5103 29.0556 50.5103" fill="#F39200"/>
<path d="M24.581 50.732C24.9357 50.7025 25.937 50.732 26.2584 50.732C26.5799 50.732 26.8681 50.9463 26.8681 51.4119C26.8681 51.8774 27.0824 52.9305 25.5971 52.9305C24.7731 52.9305 23.8272 52.7679 23.6461 52.5906C23.4688 52.4095 23.4946 51.8848 23.539 51.4821C23.6092 50.8207 24.145 50.769 24.5773 50.732" fill="#F39200"/>
<path d="M28.3719 53.6621C28.771 53.4219 29.5358 53.5364 29.9275 53.518C30.3635 53.4995 30.733 53.8431 30.696 55.092C30.6628 56.3446 30.5556 56.666 30.5187 57.0577C30.4817 57.4494 30.1972 57.7708 29.5913 57.8078C28.9816 57.8447 28.4828 57.8078 28.2315 57.7376C27.9803 57.6674 27.8399 57.4161 27.8029 56.6993C27.766 55.9862 27.8399 54.4823 27.8768 54.1941C27.9138 53.9096 28.0209 53.8727 28.3756 53.6584" fill="white"/>
<path d="M25.0835 53.5549C25.5491 53.5549 26.2992 53.4478 26.7278 53.518C27.1564 53.5882 27.3707 53.8394 27.3337 55.092C27.2968 56.3446 27.282 56.7362 27.2451 57.1316C27.2081 57.5232 26.8312 57.7745 26.2253 57.8114C25.6193 57.8484 25.2609 57.8114 25.0096 57.7412C24.7584 57.671 24.618 57.4198 24.581 56.7067C24.5441 55.9899 24.618 54.4897 24.6512 54.2015C24.6882 53.917 24.6143 53.5586 25.0798 53.5586" fill="white"/>
<path d="M28.9595 55.092C28.8782 55.2102 28.7267 55.4245 28.7193 55.5908C28.7008 56.0749 28.9705 56.2707 29.2809 56.2707C29.5913 56.2707 29.7502 55.9936 29.8425 55.5908C29.9275 55.225 29.5913 54.9109 29.2809 54.9109C29.1072 54.9109 29.0592 54.9442 28.9595 55.0883" fill="#1D1D1B"/>
<path d="M25.7413 55.1733C25.7413 55.1733 25.5676 55.1733 25.5343 55.7016C25.5122 56.0933 25.7191 56.3852 26.0442 56.4148C26.2142 56.4295 26.5357 56.0785 26.5357 55.6832C26.5357 55.2878 26.4728 54.9885 26.144 54.9885C25.9999 54.9885 25.7967 55.177 25.7376 55.177" fill="#1D1D1B"/>
<path d="M29.4804 61.3844C29.7058 61.3844 30.2674 61.0039 30.2674 60.7785L30.3191 59.2229C30.3561 58.8312 29.9977 58.5246 29.6393 58.5246L28.1909 58.5615C27.9618 58.5615 27.6884 59.1933 27.6884 59.4187V60.6344C27.6847 61.0371 28.4273 61.3844 28.6564 61.3844H29.4804Z" fill="#F39200"/>
<path d="M26.7056 61.3623C26.931 61.3623 27.1158 61.1775 27.1158 60.9484V59.0345C27.1158 58.8054 26.931 58.6243 26.7056 58.6243L25.405 58.6354C24.7251 58.5652 24.7547 59.2044 24.7547 59.4298L24.7954 60.9595C24.7917 61.3623 25.4641 61.4251 25.6895 61.4251L26.7019 61.366L26.7056 61.3623Z" fill="#F39200"/>
<path d="M31.1617 62.9954C30.8809 62.8772 30.5188 62.9954 30.3747 62.7811C30.249 62.5927 30.286 62.0458 30.0015 61.9239C29.4103 61.6727 28.0173 61.6394 27.9619 62.2823C27.8547 63.5164 28.8745 63.2282 29.7133 63.6753C30.7922 64.248 31.8416 65.2493 32.9131 64.4993C33.1643 64.0337 32.2 63.3538 31.6974 63.3538C31.6974 63.3538 31.339 63.3908 31.1617 62.9954Z" fill="#F39200"/>
<path d="M24.544 62.4227C24.6549 62.0384 24.9024 61.8869 25.368 61.9202C25.8335 61.9535 26.1809 61.9054 26.4062 61.9202C27.1415 61.9719 27.0861 63.0841 26.5503 63.3501C25.7412 63.7529 25.7079 63.546 25.3532 63.7603C24.7325 64.1334 24.6216 64.5473 24.0858 64.8687C23.5501 65.1902 22.2273 65.7444 21.9428 65.4932C21.6583 65.2419 21.9797 64.296 22.5488 63.9044C23.1215 63.5127 23.4429 63.5644 23.624 63.4942C23.8013 63.424 24.0526 62.9917 24.1967 62.9917C24.3408 62.9917 24.5181 62.5446 24.5551 62.419" fill="#F39200"/>
<path d="M60.636 65.5375C45.6051 65.5375 42.0062 55.5723 47.9624 40.2865C52.5294 28.5625 56.8561 20.6665 64.3716 13.9011C72.977 6.15284 77.7287 6.31542 82.2993 6.31542H189.574C195.615 6.31542 201.508 10.3761 201.804 16.3878C202.1 22.3994 198.793 45.6921 182.206 59.2266C173.364 66.4428 167.619 65.5412 163.491 65.5412H60.636V65.5375Z" fill="#1D1D1B"/>
<path d="M63.7175 62.7109C47.1015 62.7109 46.0004 53.699 51.6647 39.8726C56.0099 29.2682 59.9339 22.0631 67.0799 15.9444C75.2641 8.93881 77.0672 9.14572 84.3167 9.14572H186.795C194.824 9.14572 198.427 11.9539 198.427 18.2537C198.427 23.7 195.563 44.7573 179.79 56.9986C171.38 63.5238 167.888 62.7072 161.991 62.7072H63.7175" fill="#F39200"/>
<path d="M13.8916 32.6195C13.9914 32.7119 14.2278 32.6639 14.3202 32.5678L14.4274 32.4237C14.5197 32.3239 14.5161 32.1687 14.42 32.0727L8.13863 26.1275C8.03886 26.0352 7.76544 26.1719 7.67307 26.2716L7.78761 26.1386C7.69524 26.2384 7.45876 26.486 7.71002 26.7705L13.8953 32.6158L13.8916 32.6195Z" fill="white"/>
<path d="M57.9054 53.2335H93.3766C97.3819 53.2335 107.103 50.1482 108.108 41.7903C108.537 38.2136 105.174 35.3538 103.246 34.6406C103.246 34.6406 115.904 33.0666 115.904 23.6261C115.904 19.2661 111.186 17.1194 107.609 17.1194H75.9994L57.9091 53.2335H57.9054Z" fill="#1D1D1B"/>
<path d="M108.574 53.2334H125.449L135.602 25.274H125.234L108.574 53.2334Z" fill="#1D1D1B"/>
<path d="M133.84 24.4833C136.714 24.1101 138.798 21.8858 138.488 19.5136C138.177 17.1452 135.598 15.5305 132.72 15.9037C129.845 16.2769 127.762 18.5012 128.072 20.8697C128.382 23.2381 130.961 24.8565 133.84 24.4796" fill="#1D1D1B"/>
<path d="M171.968 33.0666H179.331L193.779 17.4777H178.903L177.399 20.1935C177.399 20.1935 174.753 16.2621 165.313 16.2621C155.872 16.2621 142.142 21.6234 138.854 33.9238C135.565 46.2242 144.289 53.8025 155.588 53.8025C166.887 53.8025 173.608 50.514 179.187 44.2215L174.824 40.0758C174.824 40.0758 168.672 49.5164 157.158 46.7969C152.207 45.6293 152.296 35.4978 158.732 28.7768C165.169 22.0557 169.533 22.8428 171.033 23.7C172.533 24.5572 175.252 26.2753 171.96 33.0666" fill="#1D1D1B"/>
<path d="M73.498 46.6528H84.2946C85.8686 46.6528 91.0895 44.2215 91.8027 41.0033C92.5195 37.785 90.9454 36.4992 89.2273 36.4992H80.2191L73.498 46.6528Z" fill="#F39200"/>
<path d="M84.9375 30.2769H93.8755C95.5936 30.2769 100.67 28.7731 100.815 25.843C100.959 22.9093 98.169 22.7652 97.1677 22.7652H90.018L84.9412 30.2769H84.9375Z" fill="#F39200"/>
<path fill-rule="evenodd" clip-rule="evenodd" d="M29.0629 28.0637L27.6699 27.8051C27.5184 28.1856 27.0639 29.5343 25.6599 28.411L25.4308 28.7473C25.5601 28.8433 27.1231 30.0922 27.9064 28.2669L28.8079 28.411C29.8462 30.1181 31.1727 29.2904 31.3537 29.1685L31.1875 28.8248C29.9571 29.6266 29.207 28.3297 29.0629 28.06" fill="#1D1D1B"/>
<path fill-rule="evenodd" clip-rule="evenodd" d="M207.631 10.45H208.351V9.07183H209.113C209.656 9.07183 209.689 9.25657 209.689 9.74061C209.689 10.1064 209.718 10.2875 209.767 10.4537H210.583V10.3614C210.424 10.3022 210.424 10.1729 210.424 9.65932C210.424 9.00162 210.269 8.89447 209.977 8.76515C210.328 8.64691 210.524 8.31437 210.524 7.92271C210.524 7.61972 210.35 6.92508 209.412 6.92508H207.631V10.4537V10.45ZM208.351 8.47325V7.53105H209.271C209.704 7.53105 209.789 7.80447 209.789 7.99291C209.789 8.34393 209.6 8.47325 209.22 8.47325H208.355H208.351Z" fill="#1D1D1B"/>
<path fill-rule="evenodd" clip-rule="evenodd" d="M206.297 8.71341C206.297 7.22067 207.509 6.00874 209.002 6.00874C210.494 6.00874 211.706 7.22067 211.706 8.71341C211.706 10.2062 210.494 11.4181 209.002 11.4181C207.509 11.4181 206.297 10.2062 206.297 8.71341ZM205.595 8.71341C205.595 6.8327 207.121 5.3067 209.002 5.3067C210.882 5.3067 212.408 6.8327 212.408 8.71341C212.408 10.5941 210.882 12.1201 209.002 12.1201C207.121 12.1201 205.595 10.5941 205.595 8.71341Z" fill="#1D1D1B"/>
<path d="M195.024 77.5608C192.748 75.2773 189.751 73.7402 188.569 73.186C188.469 73.1417 188.377 73.0936 188.288 73.053C188.654 73.0271 189.112 73.0271 189.592 73.101C190.952 73.3079 192.286 72.6318 192.907 71.4124L194.337 68.6006C194.887 67.5106 194.754 66.1878 193.993 65.2309C191.891 62.5853 186.171 60.8302 182.221 61.6172C179.121 62.238 176.49 63.9155 174.927 66.247C174.72 65.9477 174.539 65.6595 174.358 65.3787C173.593 64.1741 172.987 62.6888 171.402 62.0237C170.634 61.584 170.227 61.4029 156.855 61.6061C156.637 61.6098 156.423 61.6357 156.209 61.6837C155.388 58.8313 153.179 57.8595 149.798 57.8595C149.65 57.8595 149.502 57.8632 149.355 57.8743C149.454 57.4383 149.425 57.0799 149.336 56.6365C149.163 55.746 148.619 54.959 147.847 54.4786C147.422 54.2126 147.263 54.1129 142.109 52.6275C140.927 52.2876 139.663 52.6275 138.813 53.5106L130.44 61.7059H129.554L129.609 59.5222C129.639 58.0627 128.678 56.7436 127.274 56.3187L126.121 55.9677C125.885 55.8975 125.644 55.8495 125.401 55.8347L121.133 55.5169C120.228 55.4467 119.322 55.7534 118.65 56.3631L117.686 57.2388C117.035 57.8262 116.655 58.6317 116.61 59.5037L115.893 73.7957C115.893 73.8659 115.89 73.9361 115.893 74.0026L116.259 93.1977C116.274 94.0623 116.625 94.8678 117.238 95.4701C117.859 96.0797 118.683 96.4159 119.566 96.4159L125.637 96.2201C127.37 96.1647 128.77 94.7717 128.829 93.0462L129.103 84.171L131.468 90.0644C131.512 90.1789 131.564 90.2898 131.619 90.3969L133.544 94.0438C134.117 95.1264 135.244 95.7989 136.496 95.7989L144.263 95.5366C145.32 95.4996 146.325 94.938 146.905 94.0586L149.584 93.5007L152.743 94.7902C153.345 95.034 154.032 95.0599 154.649 94.8641C155.148 95.1708 155.736 95.337 156.316 95.337C156.371 95.337 156.464 95.337 156.515 95.3296L170.331 94.4576C170.818 94.4244 171.302 94.2766 171.731 94.029C171.786 93.9958 173.072 93.2235 174.595 91.6865C175.4 92.5252 177.296 93.9884 181.615 95.688C182.908 96.1979 184.261 96.4566 185.624 96.4566C187.305 96.4566 188.975 96.0686 190.59 95.3038C193.86 93.7519 196.546 90.7184 197.777 87.1897C199.24 82.996 197.082 79.641 195.016 77.5682" fill="white"/>
<path d="M134.283 73.0825L140.882 66.1435C140.901 66.125 140.919 66.1029 140.934 66.0807C146.713 57.8041 146.665 57.5639 146.606 57.2831C146.576 57.1427 146.484 57.0097 146.362 56.9321C146.284 56.884 146.103 56.7732 141.329 55.395C141.133 55.3396 140.923 55.395 140.786 55.5391L126.624 70.2301L126.834 59.5924C126.838 59.3522 126.683 59.1416 126.454 59.0714L125.301 58.7204C125.264 58.7093 125.223 58.7019 125.183 58.6982L120.896 58.3805C120.745 58.3731 120.601 58.4211 120.49 58.5209L119.522 59.3966C119.415 59.4926 119.356 59.6257 119.348 59.7661L118.635 74.0358C118.635 74.0358 118.635 74.058 118.635 74.0728L119.001 93.2679C119.001 93.412 119.064 93.545 119.171 93.6448C119.271 93.7371 119.404 93.7926 119.544 93.7926H119.563L125.537 93.6004C125.822 93.593 126.051 93.3639 126.062 93.0831L126.553 78.6767L129.036 76.6629L134.024 89.1887C134.024 89.1887 134.039 89.2219 134.047 89.2404L135.972 92.8873C136.068 93.0683 136.252 93.1903 136.47 93.1755L144.156 92.9132C144.344 92.9058 144.514 92.806 144.607 92.6434C144.699 92.4846 144.703 92.285 144.614 92.1224L134.287 73.0862L134.283 73.0825Z" fill="#561C6D"/>
<path d="M125.666 61.7281L120.065 63.8009L119.95 66.04L125.666 63.9228V61.7281Z" fill="#00A19A"/>
<path d="M125.666 65.8146L119.854 67.9651L119.744 70.2042L125.666 68.0131V65.8146Z" fill="#00A19A"/>
<path d="M125.667 69.9049L119.648 72.1329L119.544 74.1984L119.548 74.3647L125.667 72.1034V69.9049Z" fill="#00A19A"/>
<path d="M125.666 73.9952L119.581 76.2454L119.622 78.4254L125.666 76.19V73.9952Z" fill="#00A19A"/>
<path d="M125.667 78.0854L119.659 80.3061L119.703 82.4861L125.667 80.2802V78.0854Z" fill="#00A19A"/>
<path d="M125.667 82.1721L119.736 84.3668L119.781 86.5468L125.667 84.3705V82.1721Z" fill="#00A19A"/>
<path d="M125.666 86.2623L119.814 88.4275L119.854 90.6075L125.666 88.4608V86.2623Z" fill="#00A19A"/>
<path d="M145.7 70.0786L151.235 69.7571L152.506 70.3779L153.814 91.0066L149.868 89.3993L144.721 90.4708C144.359 89.9018 145.704 70.0823 145.704 70.0823" fill="#E6007E"/>
<path d="M154.165 64.2702C154.165 66.7569 152.214 68.7706 149.809 68.7706C147.404 68.7706 145.449 66.7569 145.449 64.2702C145.449 61.7835 147.4 59.7698 149.809 59.7698C152.218 59.7698 154.165 61.7835 154.165 64.2702Z" fill="#E6007E"/>
<path d="M150.064 63.2023C150.064 64.0928 149.366 64.817 148.501 64.817C147.636 64.817 146.938 64.0965 146.938 63.2023C146.938 62.3082 147.636 61.5876 148.501 61.5876C149.366 61.5876 150.064 62.3082 150.064 63.2023Z" fill="white"/>
<path d="M151.464 72.3029H146.768V73.4188H151.464V72.3029Z" fill="#F39200"/>
<path d="M151.402 74.2058H146.705V75.3216H151.402V74.2058Z" fill="#F39200"/>
<path d="M151.464 76.4338H146.768V77.5497H151.464V76.4338Z" fill="#F39200"/>
<path d="M151.209 78.5325H146.513V79.6484H151.209V78.5325Z" fill="#F39200"/>
<path d="M151.409 81.4811H146.713V82.5969H151.409V81.4811Z" fill="#F39200"/>
<path d="M151.464 83.7091H146.768V84.825H151.464V83.7091Z" fill="#F39200"/>
<path d="M151.402 86.0702H146.705V87.186H151.402V86.0702Z" fill="#F39200"/>
<path d="M176.538 76.2232C176.272 72.1403 174.927 66.8529 170.042 64.8318C169.965 64.7985 169.909 64.7764 169.873 64.7579C169.651 64.6212 168.528 64.4549 156.63 64.636C156.416 64.636 156.238 64.8096 156.231 65.0239L155.233 91.099C155.23 91.2135 155.274 91.3207 155.355 91.4019C155.433 91.4758 155.533 91.5165 155.64 91.5165C155.647 91.5165 155.658 91.5165 155.666 91.5165L169.477 90.6445C169.54 90.6408 169.603 90.6223 169.658 90.5891C169.732 90.5447 177.185 86.096 176.542 76.2269M168.11 84.1821L165.686 85.0873L161.515 85.1058L161.976 70.4629C164.999 70.2005 168.376 70.1377 168.879 70.4998C168.923 70.5959 169.001 70.6993 169.122 70.8693C169.618 71.5455 170.933 73.3449 171.41 76.8107C171.934 80.6128 168.561 83.7756 168.106 84.1858" fill="#00A13B"/>
<path d="M160.609 70.1636C160.583 71.0503 159.87 71.7487 159.013 71.7228C158.156 71.6969 157.48 70.958 157.502 70.0712C157.528 69.1844 158.241 68.4861 159.098 68.5119C159.955 68.5378 160.631 69.2768 160.609 70.1636Z" fill="#DEDC00"/>
<path d="M160.502 74.0839C160.476 74.9707 159.763 75.669 158.906 75.6431C158.049 75.6173 157.373 74.8783 157.395 73.9915C157.421 73.1047 158.134 72.4064 158.991 72.4322C159.848 72.4581 160.524 73.1971 160.502 74.0839Z" fill="#DEDC00"/>
<path d="M160.395 78.0042C160.369 78.891 159.656 79.5893 158.799 79.5634C157.942 79.5376 157.265 78.7986 157.288 77.9118C157.314 77.025 158.027 76.3267 158.884 76.3526C159.741 76.3784 160.417 77.1174 160.395 78.0042Z" fill="#DEDC00"/>
<path d="M160.288 81.9245C160.262 82.8113 159.549 83.5096 158.692 83.4837C157.834 83.4579 157.158 82.7189 157.18 81.8321C157.206 80.9453 157.919 80.247 158.777 80.2729C159.634 80.2987 160.31 81.0377 160.288 81.9245Z" fill="#DEDC00"/>
<path d="M160.181 85.8485C160.155 86.7353 159.442 87.4336 158.585 87.4077C157.727 87.3819 157.051 86.6429 157.073 85.7561C157.099 84.8693 157.812 84.171 158.669 84.1969C159.527 84.2227 160.203 84.9617 160.181 85.8485Z" fill="#DEDC00"/>
<path d="M192.618 78.987C190.653 77.0102 187.996 75.6579 186.947 75.1628C184.113 73.8363 184.231 73.4446 184.874 71.2831C185.48 69.262 189.526 69.8717 189.566 69.879C189.74 69.9086 189.914 69.8199 189.991 69.6647L191.421 66.8529C191.491 66.7125 191.477 66.5462 191.377 66.4243C190.05 64.7579 187.154 64.0152 184.164 64.5731C180.902 65.1828 178.474 67.1337 177.661 69.7904C176.911 72.2512 177.942 74.7563 180.647 77.0287C182.505 78.588 184.515 79.5228 184.848 79.6706C185.173 79.9144 187.782 81.9356 187.911 83.9715C187.959 84.6994 187.682 85.3349 187.061 85.915C184.209 88.5901 178.36 84.1082 178.301 84.0638C178.201 83.9862 178.064 83.9567 177.942 83.9936C177.82 84.0306 177.717 84.1193 177.672 84.2375L175.958 88.7342C175.91 88.8598 175.928 88.9965 176.006 89.1074C176.05 89.1702 177.133 90.6334 182.191 92.6213C183.163 93.0055 184.172 93.1977 185.184 93.1977C186.392 93.1977 187.612 92.9279 188.805 92.3848C191.495 91.1655 193.712 88.6936 194.732 85.7746C195.534 83.48 194.821 81.1966 192.618 78.987Z" fill="#E6332A"/>
<path d="M182.121 74.9374L179.708 73.6035L181.057 71.2203L183.47 72.5542L182.121 74.9374Z" fill="#FCBC00"/>
<path d="M184.933 78.5104L182.52 77.1765L183.869 74.7933L186.282 76.1271L184.933 78.5104Z" fill="#FCBC00"/>
<path d="M187.978 81.2742L186.208 79.1755L188.325 77.4241L190.098 79.5191L187.978 81.2742Z" fill="#FCBC00"/>
<path d="M190.098 84.5331L188.953 82.0464L191.473 80.9158L192.615 83.4061L190.098 84.5331Z" fill="#FCBC00"/>
<path d="M188.909 89.1628L188.225 86.5136L190.904 85.8411L191.587 88.4867L188.909 89.1628Z" fill="#FCBC00"/>
</g>
<defs>
<clipPath id="clip0_59_44">
<rect width="212.269" height="95.4766" fill="white" transform="translate(0.142822 0.972565)"/>
</clipPath>
</defs>
</svg>
