<svg width="32" height="32" viewBox="0 0 32 32" fill="none" xmlns="http://www.w3.org/2000/svg">
<path d="M16 0C7.16328 0 0 7.16328 0 16C0 24.8367 7.16328 32 16 32C24.8367 32 32 24.8367 32 16C31.9908 7.16699 24.833 0.00909474 16 0ZM22.2764 20.3907C22.8066 20.9026 22.8211 21.746 22.3093 22.2763C21.7974 22.8065 20.954 22.821 20.4237 22.3092C20.4132 22.2986 20.4014 22.2881 20.3908 22.2763L16.0001 17.8855L11.6094 22.2763C11.0791 22.7881 10.2357 22.7737 9.72382 22.2434C9.22513 21.7263 9.22513 20.9079 9.72382 20.3908L14.1146 16L9.72382 11.6093C9.21199 11.079 9.22644 10.2356 9.75672 9.72374C10.2738 9.22504 11.0922 9.22504 11.6094 9.72374L16.0001 14.1145L20.3908 9.72374C20.9211 9.21191 21.7645 9.22636 22.2764 9.75663C22.7751 10.2738 22.7751 11.0921 22.2764 11.6093L17.8856 16L22.2764 20.3907Z" fill="#561C6D"/>
</svg>
